# xmcd CD database file
#
# Track frame offsets:
#	150
#	22960
#	44343
#	78315
#	332550
#
# Disc length: 4440 seconds
#
# Revision: 0
# Processed by: cddbd v1.5PL3 Copyright (c) Steve Scherf et al.
# Submitted via: CDex 1.50beta9
#
DISCID=32115605
DTITLE=wyolica - 青い月
DYEAR=1900
DGENRE=Pop
TTITLE0=青い月
TTITLE1=もしも(Un beso ver)
TTITLE2=青い月(Board-walk mix)
TTITLE3=cccd1
TTITLE4=cccd2
EXTD=
EXTT0=
EXTT1=
EXTT2=
EXTT3=
EXTT4=
PLAYORDER=
